# xmcd
#
# Track frame offsets:
#	150
#	15554
#	30811
#	48426
#	66705
#	83690
#
# Disc length: 1208 seconds
#
# Revision: 0
# Processed by: cddbd v1.5.1PL0 Copyright (c) Steve Scherf et al.
# Submitted via: dBpowerAMP V4.0
#
DISCID=4004b606
DTITLE=Marah Carey - Emancpaton of Mimi
DYEAR=1900
DGENRE=
TTITLE0=D
TTITLE1=We Belong Together
TTITLE2=Shake It Off
TTITLE3=No
TTITLE4=E
TTITLE5=Y
EXTD=
EXTT0=
EXTT1=
EXTT2=
EXTT3=
EXTT4=
EXTT5=
PLAYORDER=
